<?xml version="1.0" standalone="no"?>
<!DOCTYPE svg PUBLIC "-//W3C//DTD SVG 20010904//EN"
 "http://www.w3.org/TR/2001/REC-SVG-20010904/DTD/svg10.dtd">
<svg version="1.0" xmlns="http://www.w3.org/2000/svg"
 width="260.000000pt" height="260.000000pt" viewBox="0 0 260.000000 260.000000"
 preserveAspectRatio="xMidYMid meet">
<metadata>
Created by potrace 1.11, written by Peter Selinger 2001-2013
</metadata>
<g transform="translate(0.000000,260.000000) scale(0.100000,-0.100000)"
fill="#000000" stroke="none">
<path d="M1752 2299 c-141 -24 -257 -83 -352 -178 -124 -125 -174 -265 -172
-476 2 -212 85 -348 263 -430 30 -13 128 -47 219 -75 223 -69 246 -79 290
-122 65 -62 66 -149 4 -218 -110 -121 -377 -87 -586 76 l-56 44 -40 -73 c-77
-140 -174 -329 -170 -332 1 -1 30 -20 62 -40 124 -79 293 -144 421 -163 64 -9
327 -9 382 0 149 25 271 85 368 183 136 135 195 292 189 503 -5 152 -41 241
-138 338 -90 90 -157 122 -411 200 -222 68 -263 95 -272 177 -6 53 13 96 59
130 101 74 258 62 415 -34 37 -22 70 -36 74 -32 12 13 189 360 189 371 0 23
-223 108 -365 138 -90 19 -293 26 -373 13z"/>
<path d="M40 1305 l0 -965 550 0 550 0 0 214 0 213 -282 1 c-156 0 -290 1
-299 1 -15 1 -17 20 -16 166 l0 165 284 0 283 0 0 215 0 214 -257 0 c-142 0
-270 0 -284 0 l-26 1 0 155 0 155 26 1 c14 1 149 1 299 1 l272 1 0 213 0 214
-550 0 -550 0 0 -965z"/>
</g>
</svg>
